<?xml version="1.0" encoding="UTF-8" standalone="no"?>
<!-- This is a Stata 16.0 generated SVG file (http://www.stata.com) -->

<svg version="1.1" width="5.50in" height="4.00in" viewBox="0 0 3960 2880" xmlns="http://www.w3.org/2000/svg" xmlns:xlink="http://www.w3.org/1999/xlink">
	<desc>Stata Graph - Graph</desc>
	<rect x="0" y="0" width="3960" height="2880" style="fill:#FFFFFF;stroke:none"/>
	<rect x="0.00" y="0.00" width="3959.88" height="2880.00" style="fill:#FFFFFF"/>
	<rect x="2.88" y="2.88" width="3954.12" height="2874.24" style="fill:none;stroke:#FFFFFF;stroke-width:5.76"/>
	<rect x="393.68" y="103.74" width="3462.46" height="2382.57" style="fill:none;stroke:#000000;stroke-width:5.76"/>
	<defs>
		<path id="path_OUssYkIv" d="M454.16 1105.86 L454.16 1105.86 L762.18 1525.51 L951.76 1672.78 L1094.07 1736.76 L1236.26 1788.37 L1378.45 1929.20 L1520.64 1810.15 L1662.83 1854.70 L1805.02 1524.15 L1947.21 1867.45 L2089.39 1756.19 L2231.58 1912.99 L2551.48 1882.30 L2978.04 1858.66 L3795.66 1869.43 L3795.66 1596.67 L2978.04 1775.37 L2551.48 1700.38 L2231.58 1447.67 L2089.39 1191.87 L1947.21 1694.07 L1805.02 1350.90 L1662.83 1710.15 L1520.64 548.72 L1378.45 1586.03 L1236.26 1687.76 L1094.07 1586.52 L951.76 707.87 L762.18 997.83 L454.16 386.73 L454.16 1105.86 Z" stroke-linecap="round"/>
	</defs>
	<defs>
		<clipPath id="clipPath_gxjOCEYl">
			<use xlink:href="#path_OUssYkIv"/>
		</clipPath>
	</defs>
	<use xlink:href="#path_OUssYkIv" style="stroke:none;fill:#486C8C;fill-opacity:0.30"/>
	<use xlink:href="#path_OUssYkIv" style="fill:none;stroke:#1A476F;stroke-opacity:0.00;stroke-width:17.28" clip-path="url(#clipPath_gxjOCEYl)"/>
	<circle cx="454.04" cy="746.36" r="26.35" style="fill:#1A476F"/>
	<circle cx="454.04" cy="746.36" r="22.03" style="fill:none;stroke:#1A476F;stroke-width:8.64"/>
	<circle cx="762.18" cy="1261.79" r="26.35" style="fill:#1A476F"/>
	<circle cx="762.18" cy="1261.79" r="22.03" style="fill:none;stroke:#1A476F;stroke-width:8.64"/>
	<circle cx="951.76" cy="1190.39" r="26.35" style="fill:#1A476F"/>
	<circle cx="951.76" cy="1190.39" r="22.03" style="fill:none;stroke:#1A476F;stroke-width:8.64"/>
	<circle cx="1093.95" cy="1661.77" r="26.35" style="fill:#1A476F"/>
	<circle cx="1093.95" cy="1661.77" r="22.03" style="fill:none;stroke:#1A476F;stroke-width:8.64"/>
	<circle cx="1236.14" cy="1738.12" r="26.35" style="fill:#1A476F"/>
	<circle cx="1236.14" cy="1738.12" r="22.03" style="fill:none;stroke:#1A476F;stroke-width:8.64"/>
	<circle cx="1378.33" cy="1757.68" r="26.35" style="fill:#1A476F"/>
	<circle cx="1378.33" cy="1757.68" r="22.03" style="fill:none;stroke:#1A476F;stroke-width:8.64"/>
	<circle cx="1520.52" cy="1179.50" r="26.35" style="fill:#1A476F"/>
	<circle cx="1520.52" cy="1179.50" r="22.03" style="fill:none;stroke:#1A476F;stroke-width:8.64"/>
	<circle cx="1662.70" cy="1782.55" r="26.35" style="fill:#1A476F"/>
	<circle cx="1662.70" cy="1782.55" r="22.03" style="fill:none;stroke:#1A476F;stroke-width:8.64"/>
	<circle cx="1804.89" cy="1437.65" r="26.35" style="fill:#1A476F"/>
	<circle cx="1804.89" cy="1437.65" r="22.03" style="fill:none;stroke:#1A476F;stroke-width:8.64"/>
	<circle cx="1947.08" cy="1780.82" r="26.35" style="fill:#1A476F"/>
	<circle cx="1947.08" cy="1780.82" r="22.03" style="fill:none;stroke:#1A476F;stroke-width:8.64"/>
	<circle cx="2089.27" cy="1474.16" r="26.35" style="fill:#1A476F"/>
	<circle cx="2089.27" cy="1474.16" r="22.03" style="fill:none;stroke:#1A476F;stroke-width:8.64"/>
	<circle cx="2231.46" cy="1680.33" r="26.35" style="fill:#1A476F"/>
	<circle cx="2231.46" cy="1680.33" r="22.03" style="fill:none;stroke:#1A476F;stroke-width:8.64"/>
	<circle cx="2551.48" cy="1791.34" r="26.35" style="fill:#1A476F"/>
	<circle cx="2551.48" cy="1791.34" r="22.03" style="fill:none;stroke:#1A476F;stroke-width:8.64"/>
	<circle cx="2978.04" cy="1817.08" r="26.35" style="fill:#1A476F"/>
	<circle cx="2978.04" cy="1817.08" r="22.03" style="fill:none;stroke:#1A476F;stroke-width:8.64"/>
	<circle cx="3795.66" cy="1733.17" r="26.35" style="fill:#1A476F"/>
	<circle cx="3795.66" cy="1733.17" r="22.03" style="fill:none;stroke:#1A476F;stroke-width:8.64"/>
	<path d=" M454.04 1215.51 L465.30 1218.23 L476.44 1221.08 L487.57 1223.93 L498.84 1226.77 L509.97 1229.62 L521.11 1232.46 L532.25 1235.31 L543.51 1238.16 L554.65 1240.88 L565.78 1243.73 L577.05 1246.57 L588.18 1249.42 L599.32 1252.27 L610.58 1255.11 L621.72 1257.96 L632.86 1260.80 L644.12 1263.53 L655.26 1266.37 L666.39 1269.22 L677.65 1272.07 L688.79 1274.91 L699.93 1277.76 L711.07 1280.61 L722.33 1283.45 L733.47 1286.17 L744.60 1289.02 L755.87 1291.87 L767.00 1294.71 L778.14 1297.56 L789.40 1300.41 L800.54 1303.25 L811.68 1306.10 L822.94 1308.82 L834.08 1311.67 L845.21 1314.51 L856.35 1317.36 L867.61 1320.21 L878.75 1323.05 L889.89 1325.90 L901.15 1328.75 L912.28 1331.47 L923.42 1334.31 L934.68 1337.16 L945.82 1340.01 L956.96 1342.85 L968.22 1345.70 L979.36 1348.55 L990.50 1351.39 L1001.63 1354.11 L1012.89 1356.96 L1024.03 1359.81 L1035.17 1362.65 L1046.43 1365.50 L1057.57 1368.35 L1068.70 1371.19 L1079.97 1374.04 L1091.10 1376.89 L1102.24 1379.61 L1113.50 1382.45 L1124.64 1385.30 L1135.78 1388.15 L1147.04 1390.99 L1158.18 1393.84 L1169.31 1396.69 L1180.45 1399.53 L1191.71 1402.26 L1202.85 1405.10 L1213.99 1407.95 L1225.25 1410.79 L1236.39 1413.64 L1247.52 1416.49 L1258.79 1419.33 L1269.92 1422.18 L1281.06 1424.90 L1292.32 1427.75 L1303.46 1430.59 L1314.60 1433.44 L1325.73 1436.29 L1336.99 1439.13 L1348.13 1441.98 L1359.27 1444.83 L1370.53 1447.55 L1381.67 1450.40 L1392.81 1453.24 L1404.07 1456.09 L1415.20 1458.93 L1426.34 1461.78 L1437.60 1464.63 L1448.74 1467.47 L1459.88 1470.20 L1471.14 1473.04 L1482.28 1475.89 L1493.41 1478.73 L1504.55 1481.58 L1515.81 1484.43 L1526.95 1487.27 L1538.09 1490.12 L1549.35 1492.84 L1560.49 1495.69 L1571.63 1498.54 L1582.89 1501.38 L1594.02 1504.23 L1605.16 1507.07 L1616.42 1509.92 L1627.56 1512.77 L1638.70 1515.49 L1649.84 1518.34 L1661.10 1521.18 L1672.23 1524.03 L1683.37 1526.88 L1694.63 1529.72 L1705.77 1532.57 L1716.91 1535.41 L1728.17 1538.14 L1739.31 1540.98 L1750.44 1543.83 L1761.70 1546.68 L1772.84 1549.52 L1783.98 1552.37 L1795.24 1555.21 L1806.38 1558.06 L1817.52 1560.78 L1828.65 1563.63 L1839.91 1566.48 L1851.05 1569.32 L1862.19 1572.17 L1873.45 1575.02 L1884.59 1577.86 L1895.73 1580.71 L1906.99 1583.43 L1918.13 1586.28 L1929.26 1589.12 L1940.52 1591.97 L1951.66 1594.82 L1962.80 1597.66 L1973.94 1600.51 L1985.20 1603.36 L1996.34 1606.08 L2007.47 1608.92 L2018.73 1611.77 L2029.87 1614.62 L2041.01 1617.46 L2052.27 1620.31 L2063.41 1623.16 L2074.55 1626.00 L2085.81 1628.72 L2096.94 1631.57 L2108.08 1634.42 L2119.22 1637.26 L2130.48 1640.11 L2141.62 1642.96 L2152.76 1645.80 L2164.02 1648.65 L2175.15 1651.50 L2186.29 1654.22 L2197.55 1657.06 L2208.69 1659.91 L2219.83 1662.76 L2231.09 1665.60 L2242.23 1668.45 L2253.36 1671.30 L2264.63 1674.14 L2275.76 1676.86 L2286.90 1679.71 L2298.04 1682.56 L2309.30 1685.40 L2320.44 1688.25 L2331.57 1691.10 L2342.84 1693.94 L2353.97 1696.79 L2365.11 1699.51 L2376.37 1702.36 L2387.51 1705.20 L2398.65 1708.05 L2409.91 1710.90 L2421.05 1713.74 L2432.18 1716.59 L2443.32 1719.44 L2454.58 1722.16 L2465.72 1725.01 L2476.86 1727.85 L2488.12 1730.70 L2499.26 1733.54 L2510.39 1736.39 L2521.65 1739.24 L2532.79 1742.08 L2543.93 1744.81 L2555.19 1747.65 L2566.33 1750.50 L2577.47 1753.34 L2588.73 1756.19 L2599.86 1759.04 L2611.00 1761.88 L2622.14 1764.73 L2633.40 1767.45 L2644.54 1770.30 L2655.68 1773.15 L2666.94 1775.99 L2678.07 1778.84 L2689.21 1781.68 L2700.47 1784.53 L2711.61 1787.38 L2722.75 1790.10 L2734.01 1792.95 L2745.15 1795.79 L2756.28 1798.64 L2767.42 1801.49 L2778.68 1804.33 L2789.82 1807.18 L2800.96 1810.02 L2812.22 1812.75 L2823.36 1815.59 L2834.49 1818.44 L2845.76 1821.29 L2856.89 1824.13 L2868.03 1826.98 L2879.29 1829.82 L2890.43 1832.67 L2901.57 1835.39 L2912.83 1838.24 L2923.97 1841.09 L2935.10 1843.93 L2946.24 1846.78 L2957.50 1849.63 L2968.64 1852.47 L2979.78 1855.32 L2991.04 1858.04 L3002.18 1860.89 L3013.31 1863.73 L3024.57 1866.58 L3035.71 1869.43 L3046.85 1872.27 L3058.11 1875.12 L3069.25 1877.96 L3080.39 1880.69 L3091.52 1883.53 L3102.78 1886.38 L3113.92 1889.23 L3125.06 1892.07 L3136.32 1894.92 L3147.46 1897.77 L3158.59 1900.61 L3169.86 1903.33 L3180.99 1906.18 L3192.13 1909.03 L3203.39 1911.87 L3214.53 1914.72 L3225.67 1917.57 L3236.80 1920.41 L3248.07 1923.26 L3259.20 1926.11 L3270.34 1928.83 L3281.60 1931.67 L3292.74 1934.52 L3303.88 1937.37 L3315.14 1940.21 L3326.28 1943.06 L3337.41 1945.91 L3348.68 1948.75 L3359.81 1951.47 L3370.95 1954.32 L3382.21 1957.17 L3393.35 1960.01 L3404.49 1962.86 L3415.62 1965.71 L3426.89 1968.55 L3438.02 1971.40 L3449.16 1974.12 L3460.42 1976.97 L3471.56 1979.81 L3482.70 1982.66 L3493.96 1985.51 L3505.09 1988.35 L3516.23 1991.20 L3527.49 1994.05 L3538.63 1996.77 L3549.77 1999.61 L3560.91 2002.46 L3572.17 2005.31 L3583.30 2008.15 L3594.44 2011.00 L3605.70 2013.85 L3616.84 2016.69 L3627.98 2019.42 L3639.24 2022.26 L3650.38 2025.11 L3661.51 2027.95 L3672.78 2030.80 L3683.91 2033.65 L3695.05 2036.49 L3706.31 2039.34 L3717.45 2042.06 L3728.59 2044.91 L3739.72 2047.76 L3750.99 2050.60 L3762.12 2053.45 L3773.26 2056.29 L3784.52 2059.14 L3795.66 2061.99" stroke-linejoin="round" style="fill:none;stroke:#90353B;stroke-width:8.64"/>
	<line x1="454.04" y1="1062.43" x2="487.45" y2="1073.81" style="stroke:#90353B;stroke-width:8.64"/>
	<line x1="487.45" y1="1073.81" x2="508.61" y2="1080.87" style="stroke:#90353B;stroke-width:8.64"/>
	<line x1="535.84" y1="1090.15" x2="554.28" y2="1096.46" style="stroke:#90353B;stroke-width:8.64"/>
	<line x1="554.28" y1="1096.46" x2="587.69" y2="1107.72" style="stroke:#90353B;stroke-width:8.64"/>
	<line x1="587.69" y1="1107.72" x2="590.41" y2="1108.59" style="stroke:#90353B;stroke-width:8.64"/>
	<line x1="617.64" y1="1117.87" x2="621.10" y2="1119.11" style="stroke:#90353B;stroke-width:8.64"/>
	<line x1="621.10" y1="1119.11" x2="654.51" y2="1130.37" style="stroke:#90353B;stroke-width:8.64"/>
	<line x1="654.51" y1="1130.37" x2="672.21" y2="1136.31" style="stroke:#90353B;stroke-width:8.64"/>
	<line x1="699.56" y1="1145.47" x2="721.46" y2="1152.77" style="stroke:#90353B;stroke-width:8.64"/>
	<line x1="721.46" y1="1152.77" x2="754.13" y2="1163.66" style="stroke:#90353B;stroke-width:8.64"/>
	<line x1="781.48" y1="1172.82" x2="788.29" y2="1175.04" style="stroke:#90353B;stroke-width:8.64"/>
	<line x1="788.29" y1="1175.04" x2="821.70" y2="1186.06" style="stroke:#90353B;stroke-width:8.64"/>
	<line x1="821.70" y1="1186.06" x2="836.18" y2="1190.76" style="stroke:#90353B;stroke-width:8.64"/>
	<line x1="863.65" y1="1199.67" x2="888.52" y2="1207.71" style="stroke:#90353B;stroke-width:8.64"/>
	<line x1="888.52" y1="1207.71" x2="918.47" y2="1217.24" style="stroke:#90353B;stroke-width:8.64"/>
	<line x1="945.95" y1="1226.03" x2="955.35" y2="1229.00" style="stroke:#90353B;stroke-width:8.64"/>
	<line x1="955.35" y1="1229.00" x2="988.76" y2="1239.64" style="stroke:#90353B;stroke-width:8.64"/>
	<line x1="988.76" y1="1239.64" x2="1000.77" y2="1243.48" style="stroke:#90353B;stroke-width:8.64"/>
	<line x1="1028.24" y1="1252.27" x2="1055.59" y2="1260.93" style="stroke:#90353B;stroke-width:8.64"/>
	<line x1="1055.59" y1="1260.93" x2="1083.18" y2="1269.47" style="stroke:#90353B;stroke-width:8.64"/>
	<line x1="1110.78" y1="1278.01" x2="1122.41" y2="1281.60" style="stroke:#90353B;stroke-width:8.64"/>
	<line x1="1122.41" y1="1281.60" x2="1155.83" y2="1291.62" style="stroke:#90353B;stroke-width:8.64"/>
	<line x1="1155.83" y1="1291.62" x2="1165.85" y2="1294.59" style="stroke:#90353B;stroke-width:8.64"/>
	<line x1="1193.44" y1="1302.88" x2="1222.65" y2="1311.67" style="stroke:#90353B;stroke-width:8.64"/>
	<line x1="1222.65" y1="1311.67" x2="1248.64" y2="1319.34" style="stroke:#90353B;stroke-width:8.64"/>
	<line x1="1276.36" y1="1327.38" x2="1289.47" y2="1331.10" style="stroke:#90353B;stroke-width:8.64"/>
	<line x1="1289.47" y1="1331.10" x2="1322.89" y2="1340.75" style="stroke:#90353B;stroke-width:8.64"/>
	<line x1="1322.89" y1="1340.75" x2="1331.67" y2="1343.22" style="stroke:#90353B;stroke-width:8.64"/>
	<line x1="1359.39" y1="1351.02" x2="1389.71" y2="1359.56" style="stroke:#90353B;stroke-width:8.64"/>
	<line x1="1389.71" y1="1359.56" x2="1414.96" y2="1366.37" style="stroke:#90353B;stroke-width:8.64"/>
	<line x1="1442.68" y1="1373.92" x2="1456.54" y2="1377.63" style="stroke:#90353B;stroke-width:8.64"/>
	<line x1="1456.54" y1="1377.63" x2="1489.95" y2="1386.91" style="stroke:#90353B;stroke-width:8.64"/>
	<line x1="1489.95" y1="1386.91" x2="1498.24" y2="1389.01" style="stroke:#90353B;stroke-width:8.64"/>
	<line x1="1526.21" y1="1396.31" x2="1556.78" y2="1404.24" style="stroke:#90353B;stroke-width:8.64"/>
	<line x1="1556.78" y1="1404.24" x2="1581.90" y2="1410.67" style="stroke:#90353B;stroke-width:8.64"/>
	<line x1="1609.86" y1="1417.72" x2="1623.60" y2="1421.07" style="stroke:#90353B;stroke-width:8.64"/>
	<line x1="1623.60" y1="1421.07" x2="1657.01" y2="1429.36" style="stroke:#90353B;stroke-width:8.64"/>
	<line x1="1657.01" y1="1429.36" x2="1665.67" y2="1431.46" style="stroke:#90353B;stroke-width:8.64"/>
	<line x1="1693.77" y1="1438.14" x2="1723.84" y2="1445.20" style="stroke:#90353B;stroke-width:8.64"/>
	<line x1="1723.84" y1="1445.20" x2="1749.83" y2="1451.14" style="stroke:#90353B;stroke-width:8.64"/>
	<line x1="1777.92" y1="1457.57" x2="1790.66" y2="1460.42" style="stroke:#90353B;stroke-width:8.64"/>
	<line x1="1790.66" y1="1460.42" x2="1824.08" y2="1467.84" style="stroke:#90353B;stroke-width:8.64"/>
	<line x1="1824.08" y1="1467.84" x2="1834.10" y2="1470.07" style="stroke:#90353B;stroke-width:8.64"/>
	<line x1="1862.31" y1="1476.26" x2="1890.90" y2="1482.45" style="stroke:#90353B;stroke-width:8.64"/>
	<line x1="1890.90" y1="1482.45" x2="1918.62" y2="1488.14" style="stroke:#90353B;stroke-width:8.64"/>
	<line x1="1946.84" y1="1493.96" x2="1957.85" y2="1496.31" style="stroke:#90353B;stroke-width:8.64"/>
	<line x1="1957.85" y1="1496.31" x2="1991.26" y2="1502.99" style="stroke:#90353B;stroke-width:8.64"/>
	<line x1="1991.26" y1="1502.99" x2="2003.27" y2="1505.34" style="stroke:#90353B;stroke-width:8.64"/>
	<line x1="2031.48" y1="1511.03" x2="2058.09" y2="1516.48" style="stroke:#90353B;stroke-width:8.64"/>
	<line x1="2058.09" y1="1516.48" x2="2087.91" y2="1522.42" style="stroke:#90353B;stroke-width:8.64"/>
	<line x1="2116.25" y1="1527.87" x2="2124.91" y2="1529.47" style="stroke:#90353B;stroke-width:8.64"/>
	<line x1="2124.91" y1="1529.47" x2="2158.32" y2="1535.91" style="stroke:#90353B;stroke-width:8.64"/>
	<line x1="2158.32" y1="1535.91" x2="2172.80" y2="1538.51" style="stroke:#90353B;stroke-width:8.64"/>
	<line x1="2201.14" y1="1543.71" x2="2225.15" y2="1548.16" style="stroke:#90353B;stroke-width:8.64"/>
	<line x1="2225.15" y1="1548.16" x2="2257.70" y2="1554.10" style="stroke:#90353B;stroke-width:8.64"/>
	<line x1="2286.03" y1="1559.17" x2="2291.97" y2="1560.17" style="stroke:#90353B;stroke-width:8.64"/>
	<line x1="2291.97" y1="1560.17" x2="2325.39" y2="1566.23" style="stroke:#90353B;stroke-width:8.64"/>
	<line x1="2325.39" y1="1566.23" x2="2342.71" y2="1569.32" style="stroke:#90353B;stroke-width:8.64"/>
	<line x1="2371.17" y1="1574.40" x2="2392.21" y2="1577.99" style="stroke:#90353B;stroke-width:8.64"/>
	<line x1="2392.21" y1="1577.99" x2="2425.62" y2="1583.80" style="stroke:#90353B;stroke-width:8.64"/>
	<line x1="2425.62" y1="1583.80" x2="2427.85" y2="1584.17" style="stroke:#90353B;stroke-width:8.64"/>
	<line x1="2456.19" y1="1589.25" x2="2459.04" y2="1589.74" style="stroke:#90353B;stroke-width:8.64"/>
	<line x1="2459.04" y1="1589.74" x2="2492.45" y2="1595.31" style="stroke:#90353B;stroke-width:8.64"/>
	<line x1="2492.45" y1="1595.31" x2="2512.99" y2="1598.90" style="stroke:#90353B;stroke-width:8.64"/>
	<line x1="2541.33" y1="1603.73" x2="2559.27" y2="1606.70" style="stroke:#90353B;stroke-width:8.64"/>
	<line x1="2559.27" y1="1606.70" x2="2592.69" y2="1611.89" style="stroke:#90353B;stroke-width:8.64"/>
	<line x1="2592.69" y1="1611.89" x2="2598.13" y2="1612.76" style="stroke:#90353B;stroke-width:8.64"/>
	<line x1="2626.59" y1="1617.59" x2="2659.51" y2="1623.16" style="stroke:#90353B;stroke-width:8.64"/>
	<line x1="2659.51" y1="1623.16" x2="2683.27" y2="1627.36" style="stroke:#90353B;stroke-width:8.64"/>
	<line x1="2711.73" y1="1632.07" x2="2726.34" y2="1634.54" style="stroke:#90353B;stroke-width:8.64"/>
	<line x1="2726.34" y1="1634.54" x2="2759.75" y2="1639.86" style="stroke:#90353B;stroke-width:8.64"/>
	<line x1="2759.75" y1="1639.86" x2="2768.53" y2="1641.22" style="stroke:#90353B;stroke-width:8.64"/>
	<line x1="2797.00" y1="1645.93" x2="2826.57" y2="1650.75" style="stroke:#90353B;stroke-width:8.64"/>
	<line x1="2826.57" y1="1650.75" x2="2853.80" y2="1655.21" style="stroke:#90353B;stroke-width:8.64"/>
	<line x1="2882.26" y1="1659.91" x2="2893.40" y2="1661.77" style="stroke:#90353B;stroke-width:8.64"/>
	<line x1="2893.40" y1="1661.77" x2="2926.81" y2="1667.09" style="stroke:#90353B;stroke-width:8.64"/>
	<line x1="2926.81" y1="1667.09" x2="2939.06" y2="1668.94" style="stroke:#90353B;stroke-width:8.64"/>
	<line x1="2967.53" y1="1673.28" x2="2993.64" y2="1677.48" style="stroke:#90353B;stroke-width:8.64"/>
	<line x1="2993.64" y1="1677.48" x2="3024.45" y2="1682.43" style="stroke:#90353B;stroke-width:8.64"/>
	<line x1="3052.91" y1="1686.77" x2="3060.46" y2="1687.88" style="stroke:#90353B;stroke-width:8.64"/>
	<line x1="3060.46" y1="1687.88" x2="3093.87" y2="1693.20" style="stroke:#90353B;stroke-width:8.64"/>
	<line x1="3093.87" y1="1693.20" x2="3109.84" y2="1695.68" style="stroke:#90353B;stroke-width:8.64"/>
	<line x1="3138.30" y1="1700.13" x2="3160.70" y2="1703.60" style="stroke:#90353B;stroke-width:8.64"/>
	<line x1="3160.70" y1="1703.60" x2="3194.24" y2="1708.67" style="stroke:#90353B;stroke-width:8.64"/>
	<line x1="3194.24" y1="1708.67" x2="3195.22" y2="1708.79" style="stroke:#90353B;stroke-width:8.64"/>
	<line x1="3223.69" y1="1713.25" x2="3227.65" y2="1713.87" style="stroke:#90353B;stroke-width:8.64"/>
	<line x1="3227.65" y1="1713.87" x2="3261.06" y2="1719.06" style="stroke:#90353B;stroke-width:8.64"/>
	<line x1="3261.06" y1="1719.06" x2="3280.61" y2="1722.04" style="stroke:#90353B;stroke-width:8.64"/>
	<line x1="3309.07" y1="1726.37" x2="3327.89" y2="1729.21" style="stroke:#90353B;stroke-width:8.64"/>
	<line x1="3327.89" y1="1729.21" x2="3361.30" y2="1734.29" style="stroke:#90353B;stroke-width:8.64"/>
	<line x1="3361.30" y1="1734.29" x2="3366.00" y2="1735.03" style="stroke:#90353B;stroke-width:8.64"/>
	<line x1="3394.34" y1="1739.48" x2="3394.71" y2="1739.48" style="stroke:#90353B;stroke-width:8.64"/>
	<line x1="3394.71" y1="1739.48" x2="3428.12" y2="1744.31" style="stroke:#90353B;stroke-width:8.64"/>
	<line x1="3428.12" y1="1744.31" x2="3451.26" y2="1747.90" style="stroke:#90353B;stroke-width:8.64"/>
	<line x1="3479.73" y1="1752.35" x2="3494.95" y2="1754.71" style="stroke:#90353B;stroke-width:8.64"/>
	<line x1="3494.95" y1="1754.71" x2="3528.36" y2="1759.66" style="stroke:#90353B;stroke-width:8.64"/>
	<line x1="3528.36" y1="1759.66" x2="3536.65" y2="1760.89" style="stroke:#90353B;stroke-width:8.64"/>
	<line x1="3565.11" y1="1765.23" x2="3595.18" y2="1769.80" style="stroke:#90353B;stroke-width:8.64"/>
	<line x1="3595.18" y1="1769.80" x2="3622.04" y2="1774.01" style="stroke:#90353B;stroke-width:8.64"/>
	<line x1="3650.50" y1="1778.22" x2="3662.01" y2="1779.95" style="stroke:#90353B;stroke-width:8.64"/>
	<line x1="3662.01" y1="1779.95" x2="3695.42" y2="1785.03" style="stroke:#90353B;stroke-width:8.64"/>
	<line x1="3695.42" y1="1785.03" x2="3707.43" y2="1786.88" style="stroke:#90353B;stroke-width:8.64"/>
	<line x1="3736.01" y1="1791.21" x2="3762.25" y2="1795.30" style="stroke:#90353B;stroke-width:8.64"/>
	<path d="" stroke-linejoin="round" style="fill:none;stroke:#90353B;stroke-width:8.64"/>
	<line x1="454.04" y1="1368.47" x2="487.45" y2="1373.92" style="stroke:#90353B;stroke-width:8.64"/>
	<line x1="487.45" y1="1373.92" x2="510.84" y2="1377.88" style="stroke:#90353B;stroke-width:8.64"/>
	<line x1="539.30" y1="1382.58" x2="554.28" y2="1385.05" style="stroke:#90353B;stroke-width:8.64"/>
	<line x1="554.28" y1="1385.05" x2="587.69" y2="1390.62" style="stroke:#90353B;stroke-width:8.64"/>
	<line x1="587.69" y1="1390.62" x2="596.10" y2="1391.98" style="stroke:#90353B;stroke-width:8.64"/>
	<line x1="624.57" y1="1396.81" x2="654.51" y2="1402.01" style="stroke:#90353B;stroke-width:8.64"/>
	<line x1="654.51" y1="1402.01" x2="681.24" y2="1406.46" style="stroke:#90353B;stroke-width:8.64"/>
	<line x1="709.71" y1="1411.29" x2="721.46" y2="1413.27" style="stroke:#90353B;stroke-width:8.64"/>
	<line x1="721.46" y1="1413.27" x2="754.88" y2="1419.09" style="stroke:#90353B;stroke-width:8.64"/>
	<line x1="754.88" y1="1419.09" x2="766.51" y2="1421.19" style="stroke:#90353B;stroke-width:8.64"/>
	<line x1="794.85" y1="1426.26" x2="821.70" y2="1430.84" style="stroke:#90353B;stroke-width:8.64"/>
	<line x1="821.70" y1="1430.84" x2="851.52" y2="1436.16" style="stroke:#90353B;stroke-width:8.64"/>
	<line x1="879.86" y1="1441.36" x2="888.52" y2="1442.97" style="stroke:#90353B;stroke-width:8.64"/>
	<line x1="888.52" y1="1442.97" x2="921.94" y2="1449.16" style="stroke:#90353B;stroke-width:8.64"/>
	<line x1="921.94" y1="1449.16" x2="936.54" y2="1451.76" style="stroke:#90353B;stroke-width:8.64"/>
	<line x1="964.88" y1="1457.08" x2="988.76" y2="1461.53" style="stroke:#90353B;stroke-width:8.64"/>
	<line x1="988.76" y1="1461.53" x2="1021.43" y2="1467.84" style="stroke:#90353B;stroke-width:8.64"/>
	<line x1="1049.65" y1="1473.29" x2="1055.59" y2="1474.40" style="stroke:#90353B;stroke-width:8.64"/>
	<line x1="1055.59" y1="1474.40" x2="1089.00" y2="1480.96" style="stroke:#90353B;stroke-width:8.64"/>
	<line x1="1089.00" y1="1480.96" x2="1106.20" y2="1484.30" style="stroke:#90353B;stroke-width:8.64"/>
	<line x1="1134.42" y1="1490.00" x2="1155.83" y2="1494.20" style="stroke:#90353B;stroke-width:8.64"/>
	<line x1="1155.83" y1="1494.20" x2="1189.24" y2="1501.13" style="stroke:#90353B;stroke-width:8.64"/>
	<line x1="1189.24" y1="1501.13" x2="1190.85" y2="1501.51" style="stroke:#90353B;stroke-width:8.64"/>
	<line x1="1219.06" y1="1507.32" x2="1222.65" y2="1508.06" style="stroke:#90353B;stroke-width:8.64"/>
	<line x1="1222.65" y1="1508.06" x2="1256.06" y2="1515.24" style="stroke:#90353B;stroke-width:8.64"/>
	<line x1="1256.06" y1="1515.24" x2="1275.37" y2="1519.20" style="stroke:#90353B;stroke-width:8.64"/>
	<line x1="1303.58" y1="1525.27" x2="1322.89" y2="1529.47" style="stroke:#90353B;stroke-width:8.64"/>
	<line x1="1322.89" y1="1529.47" x2="1356.30" y2="1537.02" style="stroke:#90353B;stroke-width:8.64"/>
	<line x1="1356.30" y1="1537.02" x2="1359.77" y2="1537.77" style="stroke:#90353B;stroke-width:8.64"/>
	<line x1="1387.86" y1="1544.08" x2="1389.71" y2="1544.45" style="stroke:#90353B;stroke-width:8.64"/>
	<line x1="1389.71" y1="1544.45" x2="1423.13" y2="1552.24" style="stroke:#90353B;stroke-width:8.64"/>
	<line x1="1423.13" y1="1552.24" x2="1443.91" y2="1557.19" style="stroke:#90353B;stroke-width:8.64"/>
	<line x1="1472.01" y1="1563.88" x2="1489.95" y2="1568.09" style="stroke:#90353B;stroke-width:8.64"/>
	<line x1="1489.95" y1="1568.09" x2="1523.36" y2="1576.25" style="stroke:#90353B;stroke-width:8.64"/>
	<line x1="1523.36" y1="1576.25" x2="1527.94" y2="1577.37" style="stroke:#90353B;stroke-width:8.64"/>
	<line x1="1555.91" y1="1584.54" x2="1556.78" y2="1584.79" style="stroke:#90353B;stroke-width:8.64"/>
	<line x1="1556.78" y1="1584.79" x2="1590.19" y2="1593.08" style="stroke:#90353B;stroke-width:8.64"/>
	<line x1="1590.19" y1="1593.08" x2="1611.60" y2="1598.53" style="stroke:#90353B;stroke-width:8.64"/>
	<line x1="1639.44" y1="1605.83" x2="1657.01" y2="1610.41" style="stroke:#90353B;stroke-width:8.64"/>
	<line x1="1657.01" y1="1610.41" x2="1690.42" y2="1619.32" style="stroke:#90353B;stroke-width:8.64"/>
	<line x1="1690.42" y1="1619.32" x2="1695.13" y2="1620.68" style="stroke:#90353B;stroke-width:8.64"/>
	<line x1="1722.97" y1="1628.11" x2="1723.84" y2="1628.35" style="stroke:#90353B;stroke-width:8.64"/>
	<line x1="1723.84" y1="1628.35" x2="1757.25" y2="1637.39" style="stroke:#90353B;stroke-width:8.64"/>
	<line x1="1757.25" y1="1637.39" x2="1778.41" y2="1643.33" style="stroke:#90353B;stroke-width:8.64"/>
	<line x1="1806.13" y1="1651.25" x2="1824.08" y2="1656.45" style="stroke:#90353B;stroke-width:8.64"/>
	<line x1="1824.08" y1="1656.45" x2="1857.49" y2="1666.10" style="stroke:#90353B;stroke-width:8.64"/>
	<line x1="1857.49" y1="1666.10" x2="1861.45" y2="1667.21" style="stroke:#90353B;stroke-width:8.64"/>
	<line x1="1889.17" y1="1675.38" x2="1890.90" y2="1675.87" style="stroke:#90353B;stroke-width:8.64"/>
	<line x1="1890.90" y1="1675.87" x2="1924.31" y2="1685.90" style="stroke:#90353B;stroke-width:8.64"/>
	<line x1="1924.31" y1="1685.90" x2="1944.36" y2="1691.84" style="stroke:#90353B;stroke-width:8.64"/>
	<line x1="1971.96" y1="1700.01" x2="1991.26" y2="1705.82" style="stroke:#90353B;stroke-width:8.64"/>
	<line x1="1991.26" y1="1705.82" x2="2024.67" y2="1716.09" style="stroke:#90353B;stroke-width:8.64"/>
	<line x1="2024.67" y1="1716.09" x2="2027.03" y2="1716.84" style="stroke:#90353B;stroke-width:8.64"/>
	<line x1="2054.62" y1="1725.13" x2="2058.09" y2="1726.12" style="stroke:#90353B;stroke-width:8.64"/>
	<line x1="2058.09" y1="1726.12" x2="2091.50" y2="1736.51" style="stroke:#90353B;stroke-width:8.64"/>
	<line x1="2091.50" y1="1736.51" x2="2109.57" y2="1742.33" style="stroke:#90353B;stroke-width:8.64"/>
	<line x1="2137.04" y1="1751.12" x2="2158.32" y2="1757.80" style="stroke:#90353B;stroke-width:8.64"/>
	<line x1="2158.32" y1="1757.80" x2="2191.74" y2="1768.57" style="stroke:#90353B;stroke-width:8.64"/>
	<line x1="2191.74" y1="1768.57" x2="2191.86" y2="1768.57" style="stroke:#90353B;stroke-width:8.64"/>
	<line x1="2219.46" y1="1777.23" x2="2225.15" y2="1779.09" style="stroke:#90353B;stroke-width:8.64"/>
	<line x1="2225.15" y1="1779.09" x2="2258.56" y2="1789.98" style="stroke:#90353B;stroke-width:8.64"/>
	<line x1="2258.56" y1="1789.98" x2="2274.15" y2="1795.05" style="stroke:#90353B;stroke-width:8.64"/>
	<line x1="2301.63" y1="1803.96" x2="2325.39" y2="1811.76" style="stroke:#90353B;stroke-width:8.64"/>
	<line x1="2325.39" y1="1811.76" x2="2356.20" y2="1822.03" style="stroke:#90353B;stroke-width:8.64"/>
	<line x1="2383.67" y1="1831.06" x2="2392.21" y2="1833.91" style="stroke:#90353B;stroke-width:8.64"/>
	<line x1="2392.21" y1="1833.91" x2="2425.62" y2="1845.17" style="stroke:#90353B;stroke-width:8.64"/>
	<line x1="2425.62" y1="1845.17" x2="2438.25" y2="1849.50" style="stroke:#90353B;stroke-width:8.64"/>
	<line x1="2465.59" y1="1858.66" x2="2492.45" y2="1867.57" style="stroke:#90353B;stroke-width:8.64"/>
	<line x1="2492.45" y1="1867.57" x2="2520.17" y2="1876.85" style="stroke:#90353B;stroke-width:8.64"/>
	<line x1="2547.39" y1="1886.26" x2="2559.27" y2="1890.34" style="stroke:#90353B;stroke-width:8.64"/>
	<line x1="2559.27" y1="1890.34" x2="2592.69" y2="1901.73" style="stroke:#90353B;stroke-width:8.64"/>
	<line x1="2592.69" y1="1901.73" x2="2601.84" y2="1904.94" style="stroke:#90353B;stroke-width:8.64"/>
	<line x1="2629.07" y1="1914.22" x2="2659.51" y2="1924.62" style="stroke:#90353B;stroke-width:8.64"/>
	<line x1="2659.51" y1="1924.62" x2="2683.64" y2="1932.91" style="stroke:#90353B;stroke-width:8.64"/>
	<line x1="2710.87" y1="1942.19" x2="2726.34" y2="1947.51" style="stroke:#90353B;stroke-width:8.64"/>
	<line x1="2726.34" y1="1947.51" x2="2759.75" y2="1958.78" style="stroke:#90353B;stroke-width:8.64"/>
	<line x1="2759.75" y1="1958.78" x2="2765.32" y2="1960.63" style="stroke:#90353B;stroke-width:8.64"/>
	<line x1="2792.54" y1="1969.91" x2="2793.16" y2="1970.16" style="stroke:#90353B;stroke-width:8.64"/>
	<line x1="2793.16" y1="1970.16" x2="2826.57" y2="1981.55" style="stroke:#90353B;stroke-width:8.64"/>
	<line x1="2826.57" y1="1981.55" x2="2847.12" y2="1988.72" style="stroke:#90353B;stroke-width:8.64"/>
	<line x1="2874.34" y1="1998.13" x2="2893.40" y2="2004.57" style="stroke:#90353B;stroke-width:8.64"/>
	<line x1="2893.40" y1="2004.57" x2="2926.81" y2="2016.20" style="stroke:#90353B;stroke-width:8.64"/>
	<line x1="2926.81" y1="2016.20" x2="2928.79" y2="2016.82" style="stroke:#90353B;stroke-width:8.64"/>
	<line x1="2955.89" y1="2026.59" x2="2960.22" y2="2028.08" style="stroke:#90353B;stroke-width:8.64"/>
	<line x1="2960.22" y1="2028.08" x2="2993.64" y2="2039.46" style="stroke:#90353B;stroke-width:8.64"/>
	<line x1="2993.64" y1="2039.46" x2="3010.22" y2="2045.40" style="stroke:#90353B;stroke-width:8.64"/>
	<line x1="3037.44" y1="2055.06" x2="3060.46" y2="2063.10" style="stroke:#90353B;stroke-width:8.64"/>
	<line x1="3060.46" y1="2063.10" x2="3091.77" y2="2073.99" style="stroke:#90353B;stroke-width:8.64"/>
	<line x1="3118.99" y1="2083.64" x2="3127.29" y2="2086.61" style="stroke:#90353B;stroke-width:8.64"/>
	<line x1="3127.29" y1="2086.61" x2="3160.70" y2="2098.25" style="stroke:#90353B;stroke-width:8.64"/>
	<line x1="3160.70" y1="2098.25" x2="3173.32" y2="2102.70" style="stroke:#90353B;stroke-width:8.64"/>
	<line x1="3200.55" y1="2112.35" x2="3227.65" y2="2121.88" style="stroke:#90353B;stroke-width:8.64"/>
	<line x1="3227.65" y1="2121.88" x2="3254.87" y2="2131.54" style="stroke:#90353B;stroke-width:8.64"/>
	<line x1="3282.10" y1="2140.94" x2="3294.47" y2="2145.27" style="stroke:#90353B;stroke-width:8.64"/>
	<line x1="3294.47" y1="2145.27" x2="3327.89" y2="2157.28" style="stroke:#90353B;stroke-width:8.64"/>
	<line x1="3327.89" y1="2157.28" x2="3336.30" y2="2160.25" style="stroke:#90353B;stroke-width:8.64"/>
	<line x1="3363.53" y1="2169.78" x2="3394.71" y2="2180.91" style="stroke:#90353B;stroke-width:8.64"/>
	<line x1="3394.71" y1="2180.91" x2="3417.73" y2="2188.96" style="stroke:#90353B;stroke-width:8.64"/>
	<line x1="3444.95" y1="2198.73" x2="3461.53" y2="2204.68" style="stroke:#90353B;stroke-width:8.64"/>
	<line x1="3461.53" y1="2204.68" x2="3494.95" y2="2216.43" style="stroke:#90353B;stroke-width:8.64"/>
	<line x1="3494.95" y1="2216.43" x2="3499.28" y2="2217.92" style="stroke:#90353B;stroke-width:8.64"/>
	<line x1="3526.26" y1="2227.82" x2="3528.36" y2="2228.56" style="stroke:#90353B;stroke-width:8.64"/>
	<line x1="3528.36" y1="2228.56" x2="3561.77" y2="2240.44" style="stroke:#90353B;stroke-width:8.64"/>
	<line x1="3561.77" y1="2240.44" x2="3580.46" y2="2247.00" style="stroke:#90353B;stroke-width:8.64"/>
	<line x1="3607.56" y1="2256.65" x2="3628.60" y2="2264.08" style="stroke:#90353B;stroke-width:8.64"/>
	<line x1="3628.60" y1="2264.08" x2="3661.89" y2="2275.83" style="stroke:#90353B;stroke-width:8.64"/>
	<line x1="3688.99" y1="2285.49" x2="3695.42" y2="2287.84" style="stroke:#90353B;stroke-width:8.64"/>
	<line x1="3695.42" y1="2287.84" x2="3728.84" y2="2299.72" style="stroke:#90353B;stroke-width:8.64"/>
	<line x1="3728.84" y1="2299.72" x2="3743.19" y2="2304.79" style="stroke:#90353B;stroke-width:8.64"/>
	<path d="" stroke-linejoin="round" style="fill:none;stroke:#90353B;stroke-width:8.64"/>
	<line x1="390.80" y1="2489.19" x2="390.80" y2="100.86" style="stroke:#000000;stroke-width:5.76"/>
	<line x1="390.80" y1="2425.82" x2="350.83" y2="2425.82" style="stroke:#000000;stroke-width:5.76"/>
	<text x="300.72" y="2425.82" style="font-family:'Times';font-size:99.99px;fill:#000000" transform="rotate(-90 300.72,2425.82)" text-anchor="middle">0</text>
	<line x1="390.80" y1="1671.91" x2="350.83" y2="1671.91" style="stroke:#000000;stroke-width:5.76"/>
	<text x="300.72" y="1671.91" style="font-family:'Times';font-size:99.99px;fill:#000000" transform="rotate(-90 300.72,1671.91)" text-anchor="middle">5000</text>
	<line x1="390.80" y1="918.01" x2="350.83" y2="918.01" style="stroke:#000000;stroke-width:5.76"/>
	<text x="300.72" y="918.01" style="font-family:'Times';font-size:99.99px;fill:#000000" transform="rotate(-90 300.72,918.01)" text-anchor="middle">10000</text>
	<line x1="390.80" y1="164.22" x2="350.83" y2="164.22" style="stroke:#000000;stroke-width:5.76"/>
	<text x="300.72" y="164.22" style="font-family:'Times';font-size:99.99px;fill:#000000" transform="rotate(-90 300.72,164.22)" text-anchor="middle">15000</text>
	<text x="190.71" y="1294.96" style="font-family:'Times';font-size:99.99px;fill:#000000" transform="rotate(-90 190.71,1294.96)" text-anchor="middle">price</text>
	<line x1="390.80" y1="2489.19" x2="3859.02" y2="2489.19" style="stroke:#000000;stroke-width:5.76"/>
	<line x1="667.38" y1="2489.19" x2="667.38" y2="2529.16" style="stroke:#000000;stroke-width:5.76"/>
	<text x="667.38" y="2619.14" style="font-family:'Times';font-size:99.99px;fill:#000000" text-anchor="middle">15</text>
	<line x1="1378.45" y1="2489.19" x2="1378.45" y2="2529.16" style="stroke:#000000;stroke-width:5.76"/>
	<text x="1378.45" y="2619.14" style="font-family:'Times';font-size:99.99px;fill:#000000" text-anchor="middle">20</text>
	<line x1="2089.39" y1="2489.19" x2="2089.39" y2="2529.16" style="stroke:#000000;stroke-width:5.76"/>
	<text x="2089.39" y="2619.14" style="font-family:'Times';font-size:99.99px;fill:#000000" text-anchor="middle">25</text>
	<line x1="2800.34" y1="2489.19" x2="2800.34" y2="2529.16" style="stroke:#000000;stroke-width:5.76"/>
	<text x="2800.34" y="2619.14" style="font-family:'Times';font-size:99.99px;fill:#000000" text-anchor="middle">30</text>
	<line x1="3511.28" y1="2489.19" x2="3511.28" y2="2529.16" style="stroke:#000000;stroke-width:5.76"/>
	<text x="3511.28" y="2619.14" style="font-family:'Times';font-size:99.99px;fill:#000000" text-anchor="middle">35</text>
	<text x="2124.91" y="2729.16" style="font-family:'Times';font-size:99.99px;fill:#000000" text-anchor="middle">mpg</text>
</svg>
