<?xml version="1.0" encoding="UTF-8" standalone="no"?>
<!-- This is a Stata 16.0 generated SVG file (http://www.stata.com) -->

<svg version="1.1" width="5.50in" height="4.00in" viewBox="0 0 3960 2880" xmlns="http://www.w3.org/2000/svg" xmlns:xlink="http://www.w3.org/1999/xlink">
	<desc>Stata Graph - Graph</desc>
	<rect x="0" y="0" width="3960" height="2880" style="fill:#FFFFFF;stroke:none"/>
	<rect x="0.00" y="0.00" width="3959.88" height="2880.00" style="fill:#FFFFFF"/>
	<rect x="2.88" y="2.88" width="3954.12" height="2874.24" style="fill:none;stroke:#FFFFFF;stroke-width:5.76"/>
	<rect x="393.68" y="103.74" width="3462.46" height="2382.57" style="fill:none;stroke:#000000;stroke-width:5.76"/>
	<circle cx="454.04" cy="164.22" r="26.35" style="fill:#1A476F"/>
	<circle cx="454.04" cy="164.22" r="22.03" style="fill:none;stroke:#1A476F;stroke-width:8.64"/>
	<circle cx="762.18" cy="858.23" r="26.35" style="fill:#1A476F"/>
	<circle cx="762.18" cy="858.23" r="22.03" style="fill:none;stroke:#1A476F;stroke-width:8.64"/>
	<circle cx="951.76" cy="762.20" r="26.35" style="fill:#1A476F"/>
	<circle cx="951.76" cy="762.20" r="22.03" style="fill:none;stroke:#1A476F;stroke-width:8.64"/>
	<circle cx="1093.95" cy="1396.81" r="26.35" style="fill:#1A476F"/>
	<circle cx="1093.95" cy="1396.81" r="22.03" style="fill:none;stroke:#1A476F;stroke-width:8.64"/>
	<circle cx="1236.14" cy="1499.77" r="26.35" style="fill:#1A476F"/>
	<circle cx="1236.14" cy="1499.77" r="22.03" style="fill:none;stroke:#1A476F;stroke-width:8.64"/>
	<circle cx="1378.33" cy="1526.01" r="26.35" style="fill:#1A476F"/>
	<circle cx="1378.33" cy="1526.01" r="22.03" style="fill:none;stroke:#1A476F;stroke-width:8.64"/>
	<circle cx="1520.52" cy="747.47" r="26.35" style="fill:#1A476F"/>
	<circle cx="1520.52" cy="747.47" r="22.03" style="fill:none;stroke:#1A476F;stroke-width:8.64"/>
	<circle cx="1662.70" cy="1559.55" r="26.35" style="fill:#1A476F"/>
	<circle cx="1662.70" cy="1559.55" r="22.03" style="fill:none;stroke:#1A476F;stroke-width:8.64"/>
	<circle cx="1804.89" cy="1095.10" r="26.35" style="fill:#1A476F"/>
	<circle cx="1804.89" cy="1095.10" r="22.03" style="fill:none;stroke:#1A476F;stroke-width:8.64"/>
	<circle cx="1947.08" cy="1557.32" r="26.35" style="fill:#1A476F"/>
	<circle cx="1947.08" cy="1557.32" r="22.03" style="fill:none;stroke:#1A476F;stroke-width:8.64"/>
	<circle cx="2089.27" cy="1144.23" r="26.35" style="fill:#1A476F"/>
	<circle cx="2089.27" cy="1144.23" r="22.03" style="fill:none;stroke:#1A476F;stroke-width:8.64"/>
	<circle cx="2231.46" cy="1421.93" r="26.35" style="fill:#1A476F"/>
	<circle cx="2231.46" cy="1421.93" r="22.03" style="fill:none;stroke:#1A476F;stroke-width:8.64"/>
	<circle cx="2551.48" cy="1571.43" r="26.35" style="fill:#1A476F"/>
	<circle cx="2551.48" cy="1571.43" r="22.03" style="fill:none;stroke:#1A476F;stroke-width:8.64"/>
	<circle cx="2978.04" cy="1606.08" r="26.35" style="fill:#1A476F"/>
	<circle cx="2978.04" cy="1606.08" r="22.03" style="fill:none;stroke:#1A476F;stroke-width:8.64"/>
	<circle cx="3795.66" cy="1492.97" r="26.35" style="fill:#1A476F"/>
	<circle cx="3795.66" cy="1492.97" r="22.03" style="fill:none;stroke:#1A476F;stroke-width:8.64"/>
	<path d=" M454.04 795.98 L465.30 799.70 L476.44 803.53 L487.57 807.37 L498.84 811.21 L509.97 815.04 L521.11 818.76 L532.25 822.59 L543.51 826.43 L554.65 830.26 L565.78 834.10 L577.05 837.81 L588.18 841.65 L599.32 845.49 L610.58 849.32 L621.72 853.16 L632.86 856.87 L644.12 860.71 L655.26 864.54 L666.39 868.38 L677.65 872.22 L688.79 875.93 L699.93 879.77 L711.07 883.60 L722.33 887.44 L733.47 891.28 L744.60 894.99 L755.87 898.82 L767.00 902.66 L778.14 906.50 L789.40 910.33 L800.54 914.05 L811.68 917.88 L822.94 921.72 L834.08 925.56 L845.21 929.39 L856.35 933.10 L867.61 936.94 L878.75 940.78 L889.89 944.61 L901.15 948.45 L912.28 952.29 L923.42 956.00 L934.68 959.83 L945.82 963.67 L956.96 967.51 L968.22 971.34 L979.36 975.06 L990.50 978.89 L1001.63 982.73 L1012.89 986.57 L1024.03 990.40 L1035.17 994.11 L1046.43 997.95 L1057.57 1001.79 L1068.70 1005.62 L1079.97 1009.46 L1091.10 1013.17 L1102.24 1017.01 L1113.50 1020.85 L1124.64 1024.68 L1135.78 1028.52 L1147.04 1032.23 L1158.18 1036.07 L1169.31 1039.90 L1180.45 1043.74 L1191.71 1047.58 L1202.85 1051.29 L1213.99 1055.13 L1225.25 1058.96 L1236.39 1062.80 L1247.52 1066.63 L1258.79 1070.35 L1269.92 1074.18 L1281.06 1078.02 L1292.32 1081.86 L1303.46 1085.69 L1314.60 1089.41 L1325.73 1093.24 L1336.99 1097.08 L1348.13 1100.91 L1359.27 1104.75 L1370.53 1108.59 L1381.67 1112.30 L1392.81 1116.14 L1404.07 1119.97 L1415.20 1123.81 L1426.34 1127.65 L1437.60 1131.36 L1448.74 1135.19 L1459.88 1139.03 L1471.14 1142.87 L1482.28 1146.70 L1493.41 1150.42 L1504.55 1154.25 L1515.81 1158.09 L1526.95 1161.93 L1538.09 1165.76 L1549.35 1169.47 L1560.49 1173.31 L1571.63 1177.15 L1582.89 1180.98 L1594.02 1184.82 L1605.16 1188.53 L1616.42 1192.37 L1627.56 1196.20 L1638.70 1200.04 L1649.84 1203.88 L1661.10 1207.59 L1672.23 1211.43 L1683.37 1215.26 L1694.63 1219.10 L1705.77 1222.94 L1716.91 1226.65 L1728.17 1230.48 L1739.31 1234.32 L1750.44 1238.16 L1761.70 1241.99 L1772.84 1245.83 L1783.98 1249.54 L1795.24 1253.38 L1806.38 1257.22 L1817.52 1261.05 L1828.65 1264.89 L1839.91 1268.60 L1851.05 1272.44 L1862.19 1276.27 L1873.45 1280.11 L1884.59 1283.95 L1895.73 1287.66 L1906.99 1291.50 L1918.13 1295.33 L1929.26 1299.17 L1940.52 1303.00 L1951.66 1306.72 L1962.80 1310.55 L1973.94 1314.39 L1985.20 1318.23 L1996.34 1322.06 L2007.47 1325.78 L2018.73 1329.61 L2029.87 1333.45 L2041.01 1337.28 L2052.27 1341.12 L2063.41 1344.83 L2074.55 1348.67 L2085.81 1352.51 L2096.94 1356.34 L2108.08 1360.18 L2119.22 1363.89 L2130.48 1367.73 L2141.62 1371.56 L2152.76 1375.40 L2164.02 1379.24 L2175.15 1382.95 L2186.29 1386.79 L2197.55 1390.62 L2208.69 1394.46 L2219.83 1398.29 L2231.09 1402.13 L2242.23 1405.84 L2253.36 1409.68 L2264.63 1413.52 L2275.76 1417.35 L2286.90 1421.19 L2298.04 1424.90 L2309.30 1428.74 L2320.44 1432.57 L2331.57 1436.41 L2342.84 1440.25 L2353.97 1443.96 L2365.11 1447.80 L2376.37 1451.63 L2387.51 1455.47 L2398.65 1459.31 L2409.91 1463.02 L2421.05 1466.85 L2432.18 1470.69 L2443.32 1474.53 L2454.58 1478.36 L2465.72 1482.08 L2476.86 1485.91 L2488.12 1489.75 L2499.26 1493.59 L2510.39 1497.42 L2521.65 1501.13 L2532.79 1504.97 L2543.93 1508.81 L2555.19 1512.64 L2566.33 1516.48 L2577.47 1520.19 L2588.73 1524.03 L2599.86 1527.87 L2611.00 1531.70 L2622.14 1535.54 L2633.40 1539.25 L2644.54 1543.09 L2655.68 1546.92 L2666.94 1550.76 L2678.07 1554.60 L2689.21 1558.43 L2700.47 1562.15 L2711.61 1565.98 L2722.75 1569.82 L2734.01 1573.65 L2745.15 1577.49 L2756.28 1581.20 L2767.42 1585.04 L2778.68 1588.88 L2789.82 1592.71 L2800.96 1596.55 L2812.22 1600.26 L2823.36 1604.10 L2834.49 1607.93 L2845.76 1611.77 L2856.89 1615.61 L2868.03 1619.32 L2879.29 1623.16 L2890.43 1626.99 L2901.57 1630.83 L2912.83 1634.66 L2923.97 1638.38 L2935.10 1642.21 L2946.24 1646.05 L2957.50 1649.89 L2968.64 1653.72 L2979.78 1657.44 L2991.04 1661.27 L3002.18 1665.11 L3013.31 1668.94 L3024.57 1672.78 L3035.71 1676.49 L3046.85 1680.33 L3058.11 1684.17 L3069.25 1688.00 L3080.39 1691.84 L3091.52 1695.55 L3102.78 1699.39 L3113.92 1703.22 L3125.06 1707.06 L3136.32 1710.90 L3147.46 1714.73 L3158.59 1718.45 L3169.86 1722.28 L3180.99 1726.12 L3192.13 1729.96 L3203.39 1733.79 L3214.53 1737.50 L3225.67 1741.34 L3236.80 1745.18 L3248.07 1749.01 L3259.20 1752.85 L3270.34 1756.56 L3281.60 1760.40 L3292.74 1764.24 L3303.88 1768.07 L3315.14 1771.91 L3326.28 1775.62 L3337.41 1779.46 L3348.68 1783.29 L3359.81 1787.13 L3370.95 1790.97 L3382.21 1794.68 L3393.35 1798.51 L3404.49 1802.35 L3415.62 1806.19 L3426.89 1810.02 L3438.02 1813.74 L3449.16 1817.57 L3460.42 1821.41 L3471.56 1825.25 L3482.70 1829.08 L3493.96 1832.79 L3505.09 1836.63 L3516.23 1840.47 L3527.49 1844.30 L3538.63 1848.14 L3549.77 1851.85 L3560.91 1855.69 L3572.17 1859.53 L3583.30 1863.36 L3594.44 1867.20 L3605.70 1871.03 L3616.84 1874.75 L3627.98 1878.58 L3639.24 1882.42 L3650.38 1886.26 L3661.51 1890.09 L3672.78 1893.81 L3683.91 1897.64 L3695.05 1901.48 L3706.31 1905.31 L3717.45 1909.15 L3728.59 1912.86 L3739.72 1916.70 L3750.99 1920.54 L3762.12 1924.37 L3773.26 1928.21 L3784.52 1931.92 L3795.66 1935.76" stroke-linejoin="round" style="fill:none;stroke:#90353B;stroke-width:8.64"/>
	<line x1="454.04" y1="589.81" x2="487.45" y2="605.28" style="stroke:#90353B;stroke-width:8.64"/>
	<line x1="487.45" y1="605.28" x2="506.38" y2="613.82" style="stroke:#90353B;stroke-width:8.64"/>
	<line x1="532.62" y1="625.70" x2="554.28" y2="635.60" style="stroke:#90353B;stroke-width:8.64"/>
	<line x1="554.28" y1="635.60" x2="584.97" y2="649.58" style="stroke:#90353B;stroke-width:8.64"/>
	<line x1="611.20" y1="661.71" x2="621.10" y2="666.29" style="stroke:#90353B;stroke-width:8.64"/>
	<line x1="621.10" y1="666.29" x2="654.51" y2="681.27" style="stroke:#90353B;stroke-width:8.64"/>
	<line x1="654.51" y1="681.27" x2="663.55" y2="685.47" style="stroke:#90353B;stroke-width:8.64"/>
	<line x1="689.78" y1="697.35" x2="721.46" y2="711.58" style="stroke:#90353B;stroke-width:8.64"/>
	<line x1="721.46" y1="711.58" x2="742.38" y2="720.99" style="stroke:#90353B;stroke-width:8.64"/>
	<line x1="768.61" y1="732.75" x2="788.29" y2="741.53" style="stroke:#90353B;stroke-width:8.64"/>
	<line x1="788.29" y1="741.53" x2="821.21" y2="756.01" style="stroke:#90353B;stroke-width:8.64"/>
	<line x1="847.56" y1="767.52" x2="855.11" y2="770.86" style="stroke:#90353B;stroke-width:8.64"/>
	<line x1="855.11" y1="770.86" x2="888.52" y2="785.59" style="stroke:#90353B;stroke-width:8.64"/>
	<line x1="888.52" y1="785.59" x2="900.40" y2="790.66" style="stroke:#90353B;stroke-width:8.64"/>
	<line x1="926.89" y1="801.93" x2="955.35" y2="814.05" style="stroke:#90353B;stroke-width:8.64"/>
	<line x1="955.35" y1="814.05" x2="979.73" y2="824.57" style="stroke:#90353B;stroke-width:8.64"/>
	<line x1="1006.21" y1="835.96" x2="1022.17" y2="842.76" style="stroke:#90353B;stroke-width:8.64"/>
	<line x1="1022.17" y1="842.76" x2="1055.59" y2="857.12" style="stroke:#90353B;stroke-width:8.64"/>
	<line x1="1055.59" y1="857.12" x2="1059.18" y2="858.60" style="stroke:#90353B;stroke-width:8.64"/>
	<line x1="1085.66" y1="869.74" x2="1089.00" y2="871.10" style="stroke:#90353B;stroke-width:8.64"/>
	<line x1="1089.00" y1="871.10" x2="1122.41" y2="884.96" style="stroke:#90353B;stroke-width:8.64"/>
	<line x1="1122.41" y1="884.96" x2="1138.99" y2="891.65" style="stroke:#90353B;stroke-width:8.64"/>
	<line x1="1165.60" y1="902.54" x2="1189.24" y2="912.07" style="stroke:#90353B;stroke-width:8.64"/>
	<line x1="1189.24" y1="912.07" x2="1219.06" y2="924.07" style="stroke:#90353B;stroke-width:8.64"/>
	<line x1="1245.79" y1="934.71" x2="1256.06" y2="938.80" style="stroke:#90353B;stroke-width:8.64"/>
	<line x1="1256.06" y1="938.80" x2="1289.47" y2="951.67" style="stroke:#90353B;stroke-width:8.64"/>
	<line x1="1289.47" y1="951.67" x2="1299.38" y2="955.50" style="stroke:#90353B;stroke-width:8.64"/>
	<line x1="1326.35" y1="965.90" x2="1356.30" y2="977.41" style="stroke:#90353B;stroke-width:8.64"/>
	<line x1="1356.30" y1="977.41" x2="1380.18" y2="986.32" style="stroke:#90353B;stroke-width:8.64"/>
	<line x1="1407.16" y1="996.34" x2="1423.13" y2="1002.16" style="stroke:#90353B;stroke-width:8.64"/>
	<line x1="1423.13" y1="1002.16" x2="1456.54" y2="1014.41" style="stroke:#90353B;stroke-width:8.64"/>
	<line x1="1456.54" y1="1014.41" x2="1461.24" y2="1016.14" style="stroke:#90353B;stroke-width:8.64"/>
	<line x1="1488.22" y1="1026.17" x2="1489.95" y2="1026.79" style="stroke:#90353B;stroke-width:8.64"/>
	<line x1="1489.95" y1="1026.79" x2="1523.36" y2="1038.54" style="stroke:#90353B;stroke-width:8.64"/>
	<line x1="1523.36" y1="1038.54" x2="1542.54" y2="1045.23" style="stroke:#90353B;stroke-width:8.64"/>
	<line x1="1569.77" y1="1054.63" x2="1590.19" y2="1061.56" style="stroke:#90353B;stroke-width:8.64"/>
	<line x1="1590.19" y1="1061.56" x2="1623.60" y2="1072.70" style="stroke:#90353B;stroke-width:8.64"/>
	<line x1="1623.60" y1="1072.70" x2="1624.34" y2="1072.95" style="stroke:#90353B;stroke-width:8.64"/>
	<line x1="1651.69" y1="1082.10" x2="1657.01" y2="1083.96" style="stroke:#90353B;stroke-width:8.64"/>
	<line x1="1657.01" y1="1083.96" x2="1690.42" y2="1094.60" style="stroke:#90353B;stroke-width:8.64"/>
	<line x1="1690.42" y1="1094.60" x2="1706.51" y2="1099.68" style="stroke:#90353B;stroke-width:8.64"/>
	<line x1="1733.98" y1="1108.46" x2="1757.25" y2="1115.64" style="stroke:#90353B;stroke-width:8.64"/>
	<line x1="1757.25" y1="1115.64" x2="1789.05" y2="1125.29" style="stroke:#90353B;stroke-width:8.64"/>
	<line x1="1816.65" y1="1133.59" x2="1824.08" y2="1135.81" style="stroke:#90353B;stroke-width:8.64"/>
	<line x1="1824.08" y1="1135.81" x2="1857.49" y2="1145.84" style="stroke:#90353B;stroke-width:8.64"/>
	<line x1="1857.49" y1="1145.84" x2="1871.84" y2="1149.92" style="stroke:#90353B;stroke-width:8.64"/>
	<line x1="1899.69" y1="1157.72" x2="1924.31" y2="1164.77" style="stroke:#90353B;stroke-width:8.64"/>
	<line x1="1924.31" y1="1164.77" x2="1955.13" y2="1173.31" style="stroke:#90353B;stroke-width:8.64"/>
	<line x1="1982.85" y1="1180.98" x2="1991.26" y2="1183.21" style="stroke:#90353B;stroke-width:8.64"/>
	<line x1="1991.26" y1="1183.21" x2="2024.67" y2="1192.12" style="stroke:#90353B;stroke-width:8.64"/>
	<line x1="2024.67" y1="1192.12" x2="2038.53" y2="1195.96" style="stroke:#90353B;stroke-width:8.64"/>
	<line x1="2066.25" y1="1203.51" x2="2091.50" y2="1210.31" style="stroke:#90353B;stroke-width:8.64"/>
	<line x1="2091.50" y1="1210.31" x2="2121.94" y2="1218.11" style="stroke:#90353B;stroke-width:8.64"/>
	<line x1="2149.91" y1="1225.29" x2="2158.32" y2="1227.51" style="stroke:#90353B;stroke-width:8.64"/>
	<line x1="2158.32" y1="1227.51" x2="2191.74" y2="1235.68" style="stroke:#90353B;stroke-width:8.64"/>
	<line x1="2191.74" y1="1235.68" x2="2205.72" y2="1239.15" style="stroke:#90353B;stroke-width:8.64"/>
	<line x1="2233.69" y1="1245.95" x2="2258.56" y2="1252.14" style="stroke:#90353B;stroke-width:8.64"/>
	<line x1="2258.56" y1="1252.14" x2="2289.62" y2="1259.69" style="stroke:#90353B;stroke-width:8.64"/>
	<line x1="2317.71" y1="1266.50" x2="2325.39" y2="1268.35" style="stroke:#90353B;stroke-width:8.64"/>
	<line x1="2325.39" y1="1268.35" x2="2358.80" y2="1276.40" style="stroke:#90353B;stroke-width:8.64"/>
	<line x1="2358.80" y1="1276.40" x2="2373.65" y2="1279.86" style="stroke:#90353B;stroke-width:8.64"/>
	<line x1="2401.74" y1="1286.42" x2="2425.62" y2="1291.99" style="stroke:#90353B;stroke-width:8.64"/>
	<line x1="2425.62" y1="1291.99" x2="2457.80" y2="1299.66" style="stroke:#90353B;stroke-width:8.64"/>
	<line x1="2485.89" y1="1305.97" x2="2492.45" y2="1307.46" style="stroke:#90353B;stroke-width:8.64"/>
	<line x1="2492.45" y1="1307.46" x2="2525.86" y2="1315.26" style="stroke:#90353B;stroke-width:8.64"/>
	<line x1="2525.86" y1="1315.26" x2="2541.95" y2="1318.97" style="stroke:#90353B;stroke-width:8.64"/>
	<line x1="2570.04" y1="1325.03" x2="2592.69" y2="1329.74" style="stroke:#90353B;stroke-width:8.64"/>
	<line x1="2592.69" y1="1329.74" x2="2626.10" y2="1337.41" style="stroke:#90353B;stroke-width:8.64"/>
	<line x1="2626.10" y1="1337.41" x2="2626.22" y2="1337.41" style="stroke:#90353B;stroke-width:8.64"/>
	<line x1="2654.31" y1="1343.72" x2="2659.51" y2="1344.96" style="stroke:#90353B;stroke-width:8.64"/>
	<line x1="2659.51" y1="1344.96" x2="2692.92" y2="1352.75" style="stroke:#90353B;stroke-width:8.64"/>
	<line x1="2692.92" y1="1352.75" x2="2710.50" y2="1356.59" style="stroke:#90353B;stroke-width:8.64"/>
	<line x1="2738.59" y1="1362.90" x2="2759.75" y2="1367.48" style="stroke:#90353B;stroke-width:8.64"/>
	<line x1="2759.75" y1="1367.48" x2="2793.16" y2="1374.66" style="stroke:#90353B;stroke-width:8.64"/>
	<line x1="2793.16" y1="1374.66" x2="2794.89" y2="1375.03" style="stroke:#90353B;stroke-width:8.64"/>
	<line x1="2822.99" y1="1381.46" x2="2826.57" y2="1382.21" style="stroke:#90353B;stroke-width:8.64"/>
	<line x1="2826.57" y1="1382.21" x2="2859.99" y2="1389.38" style="stroke:#90353B;stroke-width:8.64"/>
	<line x1="2859.99" y1="1389.38" x2="2879.17" y2="1393.72" style="stroke:#90353B;stroke-width:8.64"/>
	<line x1="2907.26" y1="1399.78" x2="2926.81" y2="1403.99" style="stroke:#90353B;stroke-width:8.64"/>
	<line x1="2926.81" y1="1403.99" x2="2960.22" y2="1410.92" style="stroke:#90353B;stroke-width:8.64"/>
	<line x1="2960.22" y1="1410.92" x2="2963.69" y2="1411.66" style="stroke:#90353B;stroke-width:8.64"/>
	<line x1="2991.78" y1="1417.85" x2="2993.64" y2="1418.22" style="stroke:#90353B;stroke-width:8.64"/>
	<line x1="2993.64" y1="1418.22" x2="3027.05" y2="1425.27" style="stroke:#90353B;stroke-width:8.64"/>
	<line x1="3027.05" y1="1425.27" x2="3048.21" y2="1429.60" style="stroke:#90353B;stroke-width:8.64"/>
	<line x1="3076.43" y1="1435.42" x2="3093.87" y2="1439.13" style="stroke:#90353B;stroke-width:8.64"/>
	<line x1="3093.87" y1="1439.13" x2="3127.29" y2="1446.19" style="stroke:#90353B;stroke-width:8.64"/>
	<line x1="3127.29" y1="1446.19" x2="3132.73" y2="1447.30" style="stroke:#90353B;stroke-width:8.64"/>
	<line x1="3160.95" y1="1453.37" x2="3194.24" y2="1460.17" style="stroke:#90353B;stroke-width:8.64"/>
	<line x1="3194.24" y1="1460.17" x2="3217.38" y2="1465.00" style="stroke:#90353B;stroke-width:8.64"/>
	<line x1="3245.59" y1="1470.81" x2="3261.06" y2="1474.16" style="stroke:#90353B;stroke-width:8.64"/>
	<line x1="3261.06" y1="1474.16" x2="3294.47" y2="1480.96" style="stroke:#90353B;stroke-width:8.64"/>
	<line x1="3294.47" y1="1480.96" x2="3302.02" y2="1482.45" style="stroke:#90353B;stroke-width:8.64"/>
	<line x1="3330.24" y1="1488.26" x2="3361.30" y2="1494.45" style="stroke:#90353B;stroke-width:8.64"/>
	<line x1="3361.30" y1="1494.45" x2="3386.54" y2="1499.90" style="stroke:#90353B;stroke-width:8.64"/>
	<line x1="3414.76" y1="1505.59" x2="3428.12" y2="1508.19" style="stroke:#90353B;stroke-width:8.64"/>
	<line x1="3428.12" y1="1508.19" x2="3461.53" y2="1514.99" style="stroke:#90353B;stroke-width:8.64"/>
	<line x1="3461.53" y1="1514.99" x2="3471.19" y2="1517.10" style="stroke:#90353B;stroke-width:8.64"/>
	<line x1="3499.40" y1="1523.04" x2="3528.36" y2="1528.73" style="stroke:#90353B;stroke-width:8.64"/>
	<line x1="3528.36" y1="1528.73" x2="3555.83" y2="1534.30" style="stroke:#90353B;stroke-width:8.64"/>
	<line x1="3584.05" y1="1540.12" x2="3595.18" y2="1542.47" style="stroke:#90353B;stroke-width:8.64"/>
	<line x1="3595.18" y1="1542.47" x2="3628.60" y2="1549.40" style="stroke:#90353B;stroke-width:8.64"/>
	<line x1="3628.60" y1="1549.40" x2="3640.35" y2="1551.75" style="stroke:#90353B;stroke-width:8.64"/>
	<line x1="3668.69" y1="1557.44" x2="3695.42" y2="1562.89" style="stroke:#90353B;stroke-width:8.64"/>
	<line x1="3695.42" y1="1562.89" x2="3725.00" y2="1569.08" style="stroke:#90353B;stroke-width:8.64"/>
	<line x1="3753.21" y1="1574.89" x2="3762.25" y2="1576.75" style="stroke:#90353B;stroke-width:8.64"/>
	<path d="" stroke-linejoin="round" style="fill:none;stroke:#90353B;stroke-width:8.64"/>
	<line x1="454.04" y1="1001.91" x2="487.45" y2="1009.34" style="stroke:#90353B;stroke-width:8.64"/>
	<line x1="487.45" y1="1009.34" x2="510.22" y2="1014.53" style="stroke:#90353B;stroke-width:8.64"/>
	<line x1="538.44" y1="1020.85" x2="554.28" y2="1024.43" style="stroke:#90353B;stroke-width:8.64"/>
	<line x1="554.28" y1="1024.43" x2="587.69" y2="1031.74" style="stroke:#90353B;stroke-width:8.64"/>
	<line x1="587.69" y1="1031.74" x2="594.50" y2="1033.34" style="stroke:#90353B;stroke-width:8.64"/>
	<line x1="622.59" y1="1039.66" x2="654.51" y2="1047.08" style="stroke:#90353B;stroke-width:8.64"/>
	<line x1="654.51" y1="1047.08" x2="678.77" y2="1052.53" style="stroke:#90353B;stroke-width:8.64"/>
	<line x1="706.86" y1="1058.96" x2="721.46" y2="1062.30" style="stroke:#90353B;stroke-width:8.64"/>
	<line x1="721.46" y1="1062.30" x2="754.88" y2="1070.10" style="stroke:#90353B;stroke-width:8.64"/>
	<line x1="754.88" y1="1070.10" x2="762.92" y2="1072.08" style="stroke:#90353B;stroke-width:8.64"/>
	<line x1="790.89" y1="1078.76" x2="821.70" y2="1086.06" style="stroke:#90353B;stroke-width:8.64"/>
	<line x1="821.70" y1="1086.06" x2="846.95" y2="1092.00" style="stroke:#90353B;stroke-width:8.64"/>
	<line x1="874.91" y1="1098.93" x2="888.52" y2="1102.28" style="stroke:#90353B;stroke-width:8.64"/>
	<line x1="888.52" y1="1102.28" x2="921.94" y2="1110.69" style="stroke:#90353B;stroke-width:8.64"/>
	<line x1="921.94" y1="1110.69" x2="930.72" y2="1112.79" style="stroke:#90353B;stroke-width:8.64"/>
	<line x1="958.69" y1="1119.72" x2="988.76" y2="1127.27" style="stroke:#90353B;stroke-width:8.64"/>
	<line x1="988.76" y1="1127.27" x2="1014.50" y2="1133.96" style="stroke:#90353B;stroke-width:8.64"/>
	<line x1="1042.35" y1="1141.26" x2="1055.59" y2="1144.72" style="stroke:#90353B;stroke-width:8.64"/>
	<line x1="1055.59" y1="1144.72" x2="1089.00" y2="1153.51" style="stroke:#90353B;stroke-width:8.64"/>
	<line x1="1089.00" y1="1153.51" x2="1098.03" y2="1155.86" style="stroke:#90353B;stroke-width:8.64"/>
	<line x1="1125.88" y1="1163.29" x2="1155.83" y2="1171.33" style="stroke:#90353B;stroke-width:8.64"/>
	<line x1="1155.83" y1="1171.33" x2="1181.44" y2="1178.38" style="stroke:#90353B;stroke-width:8.64"/>
	<line x1="1209.16" y1="1186.18" x2="1222.65" y2="1190.02" style="stroke:#90353B;stroke-width:8.64"/>
	<line x1="1222.65" y1="1190.02" x2="1256.06" y2="1199.55" style="stroke:#90353B;stroke-width:8.64"/>
	<line x1="1256.06" y1="1199.55" x2="1264.60" y2="1201.90" style="stroke:#90353B;stroke-width:8.64"/>
	<line x1="1292.32" y1="1209.69" x2="1322.89" y2="1218.73" style="stroke:#90353B;stroke-width:8.64"/>
	<line x1="1322.89" y1="1218.73" x2="1347.51" y2="1226.15" style="stroke:#90353B;stroke-width:8.64"/>
	<line x1="1374.99" y1="1234.57" x2="1389.71" y2="1239.02" style="stroke:#90353B;stroke-width:8.64"/>
	<line x1="1389.71" y1="1239.02" x2="1423.13" y2="1249.42" style="stroke:#90353B;stroke-width:8.64"/>
	<line x1="1423.13" y1="1249.42" x2="1429.93" y2="1251.65" style="stroke:#90353B;stroke-width:8.64"/>
	<line x1="1457.40" y1="1260.31" x2="1489.95" y2="1270.70" style="stroke:#90353B;stroke-width:8.64"/>
	<line x1="1489.95" y1="1270.70" x2="1512.22" y2="1278.13" style="stroke:#90353B;stroke-width:8.64"/>
	<line x1="1539.57" y1="1287.29" x2="1556.78" y2="1293.23" style="stroke:#90353B;stroke-width:8.64"/>
	<line x1="1556.78" y1="1293.23" x2="1590.19" y2="1304.49" style="stroke:#90353B;stroke-width:8.64"/>
	<line x1="1590.19" y1="1304.49" x2="1594.02" y2="1305.85" style="stroke:#90353B;stroke-width:8.64"/>
	<line x1="1621.37" y1="1315.13" x2="1623.60" y2="1315.87" style="stroke:#90353B;stroke-width:8.64"/>
	<line x1="1623.60" y1="1315.87" x2="1657.01" y2="1327.76" style="stroke:#90353B;stroke-width:8.64"/>
	<line x1="1657.01" y1="1327.76" x2="1675.58" y2="1334.44" style="stroke:#90353B;stroke-width:8.64"/>
	<line x1="1702.68" y1="1344.21" x2="1723.84" y2="1352.01" style="stroke:#90353B;stroke-width:8.64"/>
	<line x1="1723.84" y1="1352.01" x2="1756.76" y2="1363.89" style="stroke:#90353B;stroke-width:8.64"/>
	<line x1="1783.73" y1="1374.16" x2="1790.66" y2="1376.76" style="stroke:#90353B;stroke-width:8.64"/>
	<line x1="1790.66" y1="1376.76" x2="1824.08" y2="1389.63" style="stroke:#90353B;stroke-width:8.64"/>
	<line x1="1824.08" y1="1389.63" x2="1837.44" y2="1394.83" style="stroke:#90353B;stroke-width:8.64"/>
	<line x1="1864.17" y1="1405.35" x2="1890.90" y2="1415.87" style="stroke:#90353B;stroke-width:8.64"/>
	<line x1="1890.90" y1="1415.87" x2="1917.75" y2="1426.63" style="stroke:#90353B;stroke-width:8.64"/>
	<line x1="1944.36" y1="1437.52" x2="1957.85" y2="1442.85" style="stroke:#90353B;stroke-width:8.64"/>
	<line x1="1957.85" y1="1442.85" x2="1991.26" y2="1456.34" style="stroke:#90353B;stroke-width:8.64"/>
	<line x1="1991.26" y1="1456.34" x2="1997.82" y2="1458.93" style="stroke:#90353B;stroke-width:8.64"/>
	<line x1="2024.43" y1="1469.95" x2="2024.67" y2="1470.07" style="stroke:#90353B;stroke-width:8.64"/>
	<line x1="2024.67" y1="1470.07" x2="2058.09" y2="1483.56" style="stroke:#90353B;stroke-width:8.64"/>
	<line x1="2058.09" y1="1483.56" x2="2077.64" y2="1491.85" style="stroke:#90353B;stroke-width:8.64"/>
	<line x1="2104.24" y1="1503.11" x2="2124.91" y2="1511.90" style="stroke:#90353B;stroke-width:8.64"/>
	<line x1="2124.91" y1="1511.90" x2="2157.21" y2="1525.76" style="stroke:#90353B;stroke-width:8.64"/>
	<line x1="2183.57" y1="1537.27" x2="2191.74" y2="1540.74" style="stroke:#90353B;stroke-width:8.64"/>
	<line x1="2191.74" y1="1540.74" x2="2225.15" y2="1554.97" style="stroke:#90353B;stroke-width:8.64"/>
	<line x1="2225.15" y1="1554.97" x2="2236.53" y2="1559.92" style="stroke:#90353B;stroke-width:8.64"/>
	<line x1="2262.89" y1="1571.43" x2="2291.97" y2="1584.17" style="stroke:#90353B;stroke-width:8.64"/>
	<line x1="2291.97" y1="1584.17" x2="2315.61" y2="1594.57" style="stroke:#90353B;stroke-width:8.64"/>
	<line x1="2341.97" y1="1606.33" x2="2358.80" y2="1613.87" style="stroke:#90353B;stroke-width:8.64"/>
	<line x1="2358.80" y1="1613.87" x2="2392.21" y2="1628.72" style="stroke:#90353B;stroke-width:8.64"/>
	<line x1="2392.21" y1="1628.72" x2="2394.56" y2="1629.71" style="stroke:#90353B;stroke-width:8.64"/>
	<line x1="2420.67" y1="1641.72" x2="2425.62" y2="1643.95" style="stroke:#90353B;stroke-width:8.64"/>
	<line x1="2425.62" y1="1643.95" x2="2459.04" y2="1659.04" style="stroke:#90353B;stroke-width:8.64"/>
	<line x1="2459.04" y1="1659.04" x2="2473.14" y2="1665.36" style="stroke:#90353B;stroke-width:8.64"/>
	<line x1="2499.38" y1="1677.24" x2="2525.86" y2="1689.24" style="stroke:#90353B;stroke-width:8.64"/>
	<line x1="2525.86" y1="1689.24" x2="2551.85" y2="1701.24" style="stroke:#90353B;stroke-width:8.64"/>
	<line x1="2577.96" y1="1713.25" x2="2592.69" y2="1720.06" style="stroke:#90353B;stroke-width:8.64"/>
	<line x1="2592.69" y1="1720.06" x2="2626.10" y2="1735.52" style="stroke:#90353B;stroke-width:8.64"/>
	<line x1="2626.10" y1="1735.52" x2="2630.18" y2="1737.38" style="stroke:#90353B;stroke-width:8.64"/>
	<line x1="2656.42" y1="1749.38" x2="2659.51" y2="1750.75" style="stroke:#90353B;stroke-width:8.64"/>
	<line x1="2659.51" y1="1750.75" x2="2692.92" y2="1766.09" style="stroke:#90353B;stroke-width:8.64"/>
	<line x1="2692.92" y1="1766.09" x2="2708.64" y2="1773.52" style="stroke:#90353B;stroke-width:8.64"/>
	<line x1="2734.88" y1="1785.52" x2="2759.75" y2="1796.78" style="stroke:#90353B;stroke-width:8.64"/>
	<line x1="2759.75" y1="1796.78" x2="2787.22" y2="1809.53" style="stroke:#90353B;stroke-width:8.64"/>
	<line x1="2813.46" y1="1821.53" x2="2826.57" y2="1827.60" style="stroke:#90353B;stroke-width:8.64"/>
	<line x1="2826.57" y1="1827.60" x2="2859.99" y2="1843.31" style="stroke:#90353B;stroke-width:8.64"/>
	<line x1="2859.99" y1="1843.31" x2="2865.55" y2="1845.91" style="stroke:#90353B;stroke-width:8.64"/>
	<line x1="2891.79" y1="1857.79" x2="2893.40" y2="1858.54" style="stroke:#90353B;stroke-width:8.64"/>
	<line x1="2893.40" y1="1858.54" x2="2926.81" y2="1874.25" style="stroke:#90353B;stroke-width:8.64"/>
	<line x1="2926.81" y1="1874.25" x2="2943.89" y2="1882.30" style="stroke:#90353B;stroke-width:8.64"/>
	<line x1="2970.00" y1="1894.55" x2="2993.64" y2="1905.56" style="stroke:#90353B;stroke-width:8.64"/>
	<line x1="2993.64" y1="1905.56" x2="3022.10" y2="1919.17" style="stroke:#90353B;stroke-width:8.64"/>
	<line x1="3048.09" y1="1931.55" x2="3060.46" y2="1937.37" style="stroke:#90353B;stroke-width:8.64"/>
	<line x1="3060.46" y1="1937.37" x2="3093.87" y2="1953.08" style="stroke:#90353B;stroke-width:8.64"/>
	<line x1="3093.87" y1="1953.08" x2="3100.18" y2="1956.05" style="stroke:#90353B;stroke-width:8.64"/>
	<line x1="3126.17" y1="1968.43" x2="3127.29" y2="1968.92" style="stroke:#90353B;stroke-width:8.64"/>
	<line x1="3127.29" y1="1968.92" x2="3160.70" y2="1984.76" style="stroke:#90353B;stroke-width:8.64"/>
	<line x1="3160.70" y1="1984.76" x2="3178.27" y2="1993.06" style="stroke:#90353B;stroke-width:8.64"/>
	<line x1="3204.26" y1="2005.43" x2="3227.65" y2="2016.57" style="stroke:#90353B;stroke-width:8.64"/>
	<line x1="3227.65" y1="2016.57" x2="3256.23" y2="2030.06" style="stroke:#90353B;stroke-width:8.64"/>
	<line x1="3282.34" y1="2042.31" x2="3294.47" y2="2048.13" style="stroke:#90353B;stroke-width:8.64"/>
	<line x1="3294.47" y1="2048.13" x2="3327.89" y2="2064.09" style="stroke:#90353B;stroke-width:8.64"/>
	<line x1="3327.89" y1="2064.09" x2="3334.32" y2="2067.18" style="stroke:#90353B;stroke-width:8.64"/>
	<line x1="3360.31" y1="2079.56" x2="3361.30" y2="2080.06" style="stroke:#90353B;stroke-width:8.64"/>
	<line x1="3361.30" y1="2080.06" x2="3394.71" y2="2096.02" style="stroke:#90353B;stroke-width:8.64"/>
	<line x1="3394.71" y1="2096.02" x2="3412.28" y2="2104.31" style="stroke:#90353B;stroke-width:8.64"/>
	<line x1="3438.27" y1="2116.81" x2="3461.53" y2="2128.07" style="stroke:#90353B;stroke-width:8.64"/>
	<line x1="3461.53" y1="2128.07" x2="3490.24" y2="2141.56" style="stroke:#90353B;stroke-width:8.64"/>
	<line x1="3516.23" y1="2154.18" x2="3528.36" y2="2160.12" style="stroke:#90353B;stroke-width:8.64"/>
	<line x1="3528.36" y1="2160.12" x2="3561.77" y2="2176.09" style="stroke:#90353B;stroke-width:8.64"/>
	<line x1="3561.77" y1="2176.09" x2="3568.08" y2="2179.06" style="stroke:#90353B;stroke-width:8.64"/>
	<line x1="3594.07" y1="2191.43" x2="3595.18" y2="2192.05" style="stroke:#90353B;stroke-width:8.64"/>
	<line x1="3595.18" y1="2192.05" x2="3628.60" y2="2208.02" style="stroke:#90353B;stroke-width:8.64"/>
	<line x1="3628.60" y1="2208.02" x2="3646.05" y2="2216.31" style="stroke:#90353B;stroke-width:8.64"/>
	<line x1="3672.03" y1="2228.81" x2="3695.42" y2="2239.94" style="stroke:#90353B;stroke-width:8.64"/>
	<line x1="3695.42" y1="2239.94" x2="3724.01" y2="2253.68" style="stroke:#90353B;stroke-width:8.64"/>
	<line x1="3750.12" y1="2266.18" x2="3762.25" y2="2272.00" style="stroke:#90353B;stroke-width:8.64"/>
	<path d="" stroke-linejoin="round" style="fill:none;stroke:#90353B;stroke-width:8.64"/>
	<line x1="390.80" y1="2489.19" x2="390.80" y2="100.86" style="stroke:#000000;stroke-width:5.76"/>
	<line x1="390.80" y1="2425.82" x2="350.83" y2="2425.82" style="stroke:#000000;stroke-width:5.76"/>
	<text x="300.72" y="2425.82" style="font-family:'Times';font-size:99.99px;fill:#000000" transform="rotate(-90 300.72,2425.82)" text-anchor="middle">0</text>
	<line x1="390.80" y1="1410.67" x2="350.83" y2="1410.67" style="stroke:#000000;stroke-width:5.76"/>
	<text x="300.72" y="1410.67" style="font-family:'Times';font-size:99.99px;fill:#000000" transform="rotate(-90 300.72,1410.67)" text-anchor="middle">5000</text>
	<line x1="390.80" y1="395.52" x2="350.83" y2="395.52" style="stroke:#000000;stroke-width:5.76"/>
	<text x="300.72" y="395.52" style="font-family:'Times';font-size:99.99px;fill:#000000" transform="rotate(-90 300.72,395.52)" text-anchor="middle">10000</text>
	<text x="190.71" y="1294.96" style="font-family:'Times';font-size:99.99px;fill:#000000" transform="rotate(-90 190.71,1294.96)" text-anchor="middle">price</text>
	<line x1="390.80" y1="2489.19" x2="3859.02" y2="2489.19" style="stroke:#000000;stroke-width:5.76"/>
	<line x1="667.38" y1="2489.19" x2="667.38" y2="2529.16" style="stroke:#000000;stroke-width:5.76"/>
	<text x="667.38" y="2619.14" style="font-family:'Times';font-size:99.99px;fill:#000000" text-anchor="middle">15</text>
	<line x1="1378.45" y1="2489.19" x2="1378.45" y2="2529.16" style="stroke:#000000;stroke-width:5.76"/>
	<text x="1378.45" y="2619.14" style="font-family:'Times';font-size:99.99px;fill:#000000" text-anchor="middle">20</text>
	<line x1="2089.39" y1="2489.19" x2="2089.39" y2="2529.16" style="stroke:#000000;stroke-width:5.76"/>
	<text x="2089.39" y="2619.14" style="font-family:'Times';font-size:99.99px;fill:#000000" text-anchor="middle">25</text>
	<line x1="2800.34" y1="2489.19" x2="2800.34" y2="2529.16" style="stroke:#000000;stroke-width:5.76"/>
	<text x="2800.34" y="2619.14" style="font-family:'Times';font-size:99.99px;fill:#000000" text-anchor="middle">30</text>
	<line x1="3511.28" y1="2489.19" x2="3511.28" y2="2529.16" style="stroke:#000000;stroke-width:5.76"/>
	<text x="3511.28" y="2619.14" style="font-family:'Times';font-size:99.99px;fill:#000000" text-anchor="middle">35</text>
	<text x="2124.91" y="2729.16" style="font-family:'Times';font-size:99.99px;fill:#000000" text-anchor="middle">mpg</text>
</svg>
